<svg width="30" height="26" viewBox="0 0 30 26" fill="none" xmlns="http://www.w3.org/2000/svg">
<path d="M24.3337 25L28.3337 21M28.3337 21L24.3337 17M28.3337 21H20.3337M19.667 1.38768C21.6215 2.17886 23.0003 4.09508 23.0003 6.33333C23.0003 8.57159 21.6215 10.4878 19.667 11.279M15.0003 17H9.66699C7.18197 17 5.93946 17 4.95935 17.406C3.65253 17.9473 2.61427 18.9855 2.07297 20.2924C1.66699 21.2725 1.66699 22.515 1.66699 25M17.0003 6.33333C17.0003 9.27885 14.6125 11.6667 11.667 11.6667C8.72147 11.6667 6.33366 9.27885 6.33366 6.33333C6.33366 3.38781 8.72147 1 11.667 1C14.6125 1 17.0003 3.38781 17.0003 6.33333Z" stroke="url(#paint0_linear_31_924)" stroke-width="2" stroke-linecap="round" stroke-linejoin="round"/>
<defs>
<linearGradient id="paint0_linear_31_924" x1="2.8052" y1="14.5" x2="21.3418" y2="14.5" gradientUnits="userSpaceOnUse">
<stop stop-color="#790000"/>
<stop offset="1" stop-color="#DB4520"/>
</linearGradient>
</defs>
</svg>
