<svg width="29" height="27" viewBox="0 0 29 27" fill="none" xmlns="http://www.w3.org/2000/svg">
<path d="M10.3333 26V16.1333C10.3333 15.3866 10.3333 15.0132 10.4787 14.728C10.6065 14.4771 10.8105 14.2732 11.0614 14.1453C11.3466 14 11.7199 14 12.4667 14H16.2C16.9467 14 17.3201 14 17.6053 14.1453C17.8562 14.2732 18.0602 14.4771 18.188 14.728C18.3333 15.0132 18.3333 15.3866 18.3333 16.1333V26M1 10.6667L13.0533 1.62667C13.5123 1.28241 13.7419 1.11028 13.9939 1.04393C14.2164 0.985358 14.4503 0.985358 14.6728 1.04393C14.9248 1.11028 15.1543 1.28241 15.6133 1.62667L27.6667 10.6667M3.66667 8.66667V21.7333C3.66667 23.2268 3.66667 23.9735 3.95732 24.544C4.21298 25.0457 4.62093 25.4537 5.1227 25.7094C5.69313 26 6.43987 26 7.93334 26H20.7333C22.2268 26 22.9736 26 23.544 25.7094C24.0457 25.4537 24.4537 25.0457 24.7094 24.544C25 23.9735 25 23.2268 25 21.7333V8.66667L16.8933 2.58667C15.9753 1.89815 15.5163 1.55389 15.0122 1.42119C14.5672 1.30405 14.0995 1.30405 13.6545 1.42119C13.1504 1.55389 12.6914 1.89815 11.7733 2.58667L3.66667 8.66667Z" stroke="url(#paint0_linear_31_903)" stroke-width="2" stroke-linecap="round" stroke-linejoin="round"/>
<defs>
<linearGradient id="paint0_linear_31_903" x1="2.13821" y1="15.0625" x2="20.6748" y2="15.0625" gradientUnits="userSpaceOnUse">
<stop stop-color="#790000"/>
<stop offset="1" stop-color="#DB4520"/>
</linearGradient>
</defs>
</svg>
