<svg width="58" height="43" viewBox="0 0 58 43" fill="none" xmlns="http://www.w3.org/2000/svg">
<path d="M14.9825 41.784C11.3985 41.784 8.79583 40.9733 7.1745 39.352C5.55317 37.6453 4.7425 35.384 4.7425 32.568V29.24C4.7425 24.376 5.8945 19.768 8.1985 15.416C10.5025 10.9787 13.6172 7.26666 17.5425 4.28H28.5505C25.8198 6.84 23.4732 9.44266 21.5105 12.088C19.6332 14.648 18.2252 17.5067 17.2865 20.664C22.5772 21.432 25.2225 24.2907 25.2225 29.24V32.568C25.2225 35.384 24.4118 37.6453 22.7905 39.352C21.1692 40.9733 18.5665 41.784 14.9825 41.784ZM42.5025 41.784C38.9185 41.784 36.3158 40.9733 34.6945 39.352C33.0732 37.6453 32.2625 35.384 32.2625 32.568V29.24C32.2625 24.376 33.4145 19.768 35.7185 15.416C38.0225 10.9787 41.1372 7.26666 45.0625 4.28H56.0705C53.3398 6.84 50.9932 9.44266 49.0305 12.088C47.1532 14.648 45.7452 17.5067 44.8065 20.664C50.0972 21.432 52.7425 24.2907 52.7425 29.24V32.568C52.7425 35.384 51.9318 37.6453 50.3105 39.352C48.6892 40.9733 46.0865 41.784 42.5025 41.784Z" fill="url(#paint0_linear_92_255)"/>
<defs>
<linearGradient id="paint0_linear_92_255" x1="-0.268293" y1="60.0625" x2="44.2195" y2="60.0625" gradientUnits="userSpaceOnUse">
<stop stop-color="#790000"/>
<stop offset="1" stop-color="#DB4520"/>
</linearGradient>
</defs>
</svg>
