<svg width="16" height="16" viewBox="0 0 16 16" fill="none" xmlns="http://www.w3.org/2000/svg">
<path d="M6.00065 14V9.06667C6.00065 8.6933 6.00065 8.50661 6.07332 8.36401C6.13723 8.23857 6.23922 8.13658 6.36466 8.07266C6.50727 8 6.69395 8 7.06732 8H8.93399C9.30736 8 9.49404 8 9.63665 8.07266C9.76209 8.13658 9.86408 8.23857 9.92799 8.36401C10.0007 8.50661 10.0007 8.6933 10.0007 9.06667V14M1.33398 6.33333L7.36065 1.81333C7.59016 1.6412 7.70491 1.55514 7.83094 1.52196C7.94219 1.49268 8.05912 1.49268 8.17037 1.52196C8.2964 1.55514 8.41115 1.6412 8.64065 1.81333L14.6673 6.33333M2.66732 5.33333V11.8667C2.66732 12.6134 2.66732 12.9868 2.81265 13.272C2.94048 13.5229 3.14445 13.7268 3.39533 13.8547C3.68055 14 4.05392 14 4.80065 14H11.2007C11.9474 14 12.3208 14 12.606 13.8547C12.8569 13.7268 13.0608 13.5229 13.1887 13.272C13.334 12.9868 13.334 12.6134 13.334 11.8667V5.33333L9.28065 2.29333C8.82164 1.94907 8.59214 1.77695 8.34008 1.71059C8.11758 1.65202 7.88372 1.65202 7.66123 1.71059C7.40917 1.77695 7.17967 1.94907 6.72065 2.29333L2.66732 5.33333Z" stroke="#F3F4F6" stroke-width="1.5" stroke-linecap="round" stroke-linejoin="round"/>
</svg>
