<?xml version="1.0" encoding="UTF-8"?>
<!DOCTYPE svg PUBLIC "-//W3C//DTD SVG 1.1//EN" "http://www.w3.org/Graphics/SVG/1.1/DTD/svg11.dtd">
<!-- Creator: CorelDRAW X8 -->
<svg xmlns="http://www.w3.org/2000/svg" xml:space="preserve" width="10mm" height="10mm" version="1.1" style="shape-rendering:geometricPrecision; text-rendering:geometricPrecision; image-rendering:optimizeQuality; fill-rule:evenodd; clip-rule:evenodd"
viewBox="0 0 1000 1000"
 xmlns:xlink="http://www.w3.org/1999/xlink">
 <defs>
  <style type="text/css">
   <![CDATA[
    .str0 {stroke:#0D2D87;stroke-width:52.9;stroke-linecap:round;stroke-linejoin:round}
    .fil0 {fill:none}
   ]]>
  </style>
 </defs>
 <g id="Layer_x0020_1">
  <metadata id="CorelCorpID_0Corel-Layer"/>
  <path class="fil0 str0" d="M390 831l0 -261c0,-20 0,-30 4,-38 3,-6 8,-12 15,-15 8,-4 17,-4 37,-4l99 0c20,0 30,0 37,4 7,3 12,9 16,15 3,8 3,18 3,38l0 261m-458 -406l319 -239c12,-9 18,-14 25,-16 6,-1 12,-1 18,0 6,2 12,7 24,16l319 239m-635 -53l0 346c0,39 0,59 8,74 7,13 18,24 31,31 15,8 35,8 74,8l339 0c39,0 59,0 74,-8 14,-7 24,-18 31,-31 8,-15 8,-35 8,-74l0 -346 -215 -161c-24,-18 -36,-27 -49,-31 -12,-3 -25,-3 -36,0 -14,4 -26,13 -50,31l-215 161z"/>
 </g>
</svg>
