<?xml version="1.0" encoding="UTF-8"?>
<!DOCTYPE svg PUBLIC "-//W3C//DTD SVG 1.1//EN" "http://www.w3.org/Graphics/SVG/1.1/DTD/svg11.dtd">
<!-- Creator: CorelDRAW X8 -->
<svg xmlns="http://www.w3.org/2000/svg" xml:space="preserve" width="10mm" height="10mm" version="1.1" style="shape-rendering:geometricPrecision; text-rendering:geometricPrecision; image-rendering:optimizeQuality; fill-rule:evenodd; clip-rule:evenodd"
viewBox="0 0 1000 1000"
 xmlns:xlink="http://www.w3.org/1999/xlink">
 <defs>
  <style type="text/css">
   <![CDATA[
    .str0 {stroke:#0D2E87;stroke-width:52.9;stroke-linecap:round;stroke-linejoin:round}
    .fil0 {fill:none}
   ]]>
  </style>
 </defs>
 <g id="Layer_x0020_1">
  <metadata id="CorelCorpID_0Corel-Layer"/>
  <path class="fil0 str0" d="M500 588l0 -211m-106 105l212 0m176 18c0,173 -189,299 -257,339 -8,5 -12,7 -18,8 -4,1 -10,1 -14,0 -6,-1 -10,-3 -18,-8 -68,-40 -257,-166 -257,-339l0 -169c0,-28 0,-42 4,-54 4,-11 11,-20 20,-28 9,-9 23,-14 49,-23l189 -71c8,-3 11,-4 15,-5 3,0 7,0 10,0 4,1 7,2 15,5l189 71c26,9 40,14 49,23 9,8 16,17 20,28 4,12 4,26 4,54l0 169z"/>
 </g>
</svg>
