<?xml version="1.0" encoding="UTF-8"?>
<!DOCTYPE svg PUBLIC "-//W3C//DTD SVG 1.1//EN" "http://www.w3.org/Graphics/SVG/1.1/DTD/svg11.dtd">
<!-- Creator: CorelDRAW X8 -->
<svg xmlns="http://www.w3.org/2000/svg" xml:space="preserve" width="16mm" height="15mm" version="1.1" style="shape-rendering:geometricPrecision; text-rendering:geometricPrecision; image-rendering:optimizeQuality; fill-rule:evenodd; clip-rule:evenodd"
viewBox="0 0 1600 1500"
 xmlns:xlink="http://www.w3.org/1999/xlink">
 <defs>
  <style type="text/css">
   <![CDATA[
    .fil0 {fill:#0D2E87}
   ]]>
  </style>
 </defs>
 <g id="Layer_x0020_1">
  <metadata id="CorelCorpID_0Corel-Layer"/>
  <path class="fil0" d="M429 1287c-95,0 -164,-22 -206,-65 -43,-45 -65,-105 -65,-179l0 -88c0,-129 31,-251 92,-366 61,-117 143,-216 247,-295l291 0c-72,68 -134,137 -186,207 -50,68 -87,143 -112,227 140,20 210,96 210,227l0 88c0,74 -21,134 -64,179 -43,43 -112,65 -207,65zm728 0c-95,0 -163,-22 -206,-65 -43,-45 -65,-105 -65,-179l0 -88c0,-129 31,-251 92,-366 61,-117 143,-216 247,-295l291 0c-72,68 -134,137 -186,207 -50,68 -87,143 -112,227 140,20 210,96 210,227l0 88c0,74 -21,134 -64,179 -43,43 -112,65 -207,65z"/>
 </g>
</svg>
