<?xml version="1.0" encoding="UTF-8"?>
<!DOCTYPE svg PUBLIC "-//W3C//DTD SVG 1.1//EN" "http://www.w3.org/Graphics/SVG/1.1/DTD/svg11.dtd">
<!-- Creator: CorelDRAW X8 -->
<svg xmlns="http://www.w3.org/2000/svg" xml:space="preserve" width="10mm" height="10mm" version="1.1" style="shape-rendering:geometricPrecision; text-rendering:geometricPrecision; image-rendering:optimizeQuality; fill-rule:evenodd; clip-rule:evenodd"
viewBox="0 0 1000 1000"
 xmlns:xlink="http://www.w3.org/1999/xlink">
 <defs>
  <style type="text/css">
   <![CDATA[
    .str0 {stroke:#0D2E87;stroke-width:52.9;stroke-linecap:round;stroke-linejoin:round}
    .fil0 {fill:none}
   ]]>
  </style>
 </defs>
 <g id="Layer_x0020_1">
  <metadata id="CorelCorpID_0Corel-Layer"/>
  <path class="fil0 str0" d="M747 818l106 -106m0 0l-106 -106m106 106l-212 0m-18 -519c52,21 89,71 89,131 0,59 -37,110 -89,130m-123 152l-141 0c-66,0 -99,0 -125,11 -34,14 -62,41 -76,76 -11,26 -11,59 -11,125m406 -494c0,78 -63,141 -141,141 -78,0 -141,-63 -141,-141 0,-78 63,-141 141,-141 78,0 141,63 141,141z"/>
 </g>
</svg>
